<?xml version="1.0" encoding="UTF-8" standalone="no"?><svg xmlns="http://www.w3.org/2000/svg" xmlns:xlink="http://www.w3.org/1999/xlink" contentStyleType="text/css" height="1006px" preserveAspectRatio="none" style="width:524px;height:1006px;background:#FFFFFF;" version="1.1" viewBox="0 0 524 1006" width="524px" zoomAndPan="magnify"><defs/><g><!--cluster System--><g id="cluster_System"><polygon fill="none" points="16,16,26,6,507,6,507,782,497,792,16,792,16,16" style="stroke:#181818;stroke-width:1.0;"/><line style="stroke:#181818;stroke-width:1.0;" x1="497" x2="507" y1="16" y2="6"/><line style="stroke:#181818;stroke-width:1.0;" x1="16" x2="497" y1="16" y2="16"/><line style="stroke:#181818;stroke-width:1.0;" x1="497" x2="497" y1="16" y2="792"/><text fill="#000000" font-family="sans-serif" font-size="14" font-weight="bold" lengthAdjust="spacing" textLength="60" x="227.5" y="31.9951">System</text></g><!--entity API--><g id="elem_API"><rect fill="#F1F1F1" height="46.2969" rx="2.5" ry="2.5" style="stroke:#181818;stroke-width:0.5;" width="63" x="388.5" y="270"/><rect fill="#F1F1F1" height="10" style="stroke:#181818;stroke-width:0.5;" width="15" x="431.5" y="275"/><rect fill="#F1F1F1" height="2" style="stroke:#181818;stroke-width:0.5;" width="4" x="429.5" y="277"/><rect fill="#F1F1F1" height="2" style="stroke:#181818;stroke-width:0.5;" width="4" x="429.5" y="281"/><text fill="#000000" font-family="sans-serif" font-size="14" lengthAdjust="spacing" textLength="23" x="403.5" y="302.9951">API</text></g><!--entity SQL--><g id="elem_SQL"><path d="M386,392.5 C386,382.5 420,382.5 420,382.5 C420,382.5 454,382.5 454,392.5 L454,417.7969 C454,427.7969 420,427.7969 420,427.7969 C420,427.7969 386,427.7969 386,417.7969 L386,392.5 " fill="#F1F1F1" style="stroke:#181818;stroke-width:0.5;"/><path d="M386,392.5 C386,402.5 420,402.5 420,402.5 C420,402.5 454,402.5 454,392.5 " fill="none" style="stroke:#181818;stroke-width:0.5;"/><text fill="#000000" font-family="sans-serif" font-size="14" lengthAdjust="spacing" textLength="48" x="396" y="419.4951">MySQL</text></g><!--entity F--><g id="elem_F"><rect fill="#F1F1F1" height="46.2969" rx="2.5" ry="2.5" style="stroke:#181818;stroke-width:0.5;" width="106" x="221" y="500"/><rect fill="#F1F1F1" height="10" style="stroke:#181818;stroke-width:0.5;" width="15" x="307" y="505"/><rect fill="#F1F1F1" height="2" style="stroke:#181818;stroke-width:0.5;" width="4" x="305" y="507"/><rect fill="#F1F1F1" height="2" style="stroke:#181818;stroke-width:0.5;" width="4" x="305" y="511"/><text fill="#000000" font-family="sans-serif" font-size="14" lengthAdjust="spacing" textLength="66" x="236" y="532.9951">Frontend</text></g><!--entity Q--><g id="elem_Q"><rect fill="#F1F1F1" height="46.2969" rx="2.5" ry="2.5" style="stroke:#181818;stroke-width:0.5;" width="129" x="173.5" y="270"/><rect fill="#F1F1F1" height="10" style="stroke:#181818;stroke-width:0.5;" width="15" x="282.5" y="275"/><rect fill="#F1F1F1" height="2" style="stroke:#181818;stroke-width:0.5;" width="4" x="280.5" y="277"/><rect fill="#F1F1F1" height="2" style="stroke:#181818;stroke-width:0.5;" width="4" x="280.5" y="281"/><text fill="#000000" font-family="sans-serif" font-size="14" lengthAdjust="spacing" textLength="89" x="188.5" y="302.9951">Quarkus app</text></g><!--entity RMQ--><g id="elem_RMQ"><rect fill="#F1F1F1" height="46.2969" rx="2.5" ry="2.5" style="stroke:#181818;stroke-width:0.5;" width="112" x="214" y="46"/><rect fill="#F1F1F1" height="10" style="stroke:#181818;stroke-width:0.5;" width="15" x="306" y="51"/><rect fill="#F1F1F1" height="2" style="stroke:#181818;stroke-width:0.5;" width="4" x="304" y="53"/><rect fill="#F1F1F1" height="2" style="stroke:#181818;stroke-width:0.5;" width="4" x="304" y="57"/><text fill="#000000" font-family="sans-serif" font-size="14" lengthAdjust="spacing" textLength="72" x="229" y="78.9951">RabbitMQ</text></g><!--entity N--><g id="elem_N"><rect fill="#F1F1F1" height="46.2969" rx="2.5" ry="2.5" style="stroke:#181818;stroke-width:0.5;" width="80" x="145" y="730"/><rect fill="#F1F1F1" height="10" style="stroke:#181818;stroke-width:0.5;" width="15" x="205" y="735"/><rect fill="#F1F1F1" height="2" style="stroke:#181818;stroke-width:0.5;" width="4" x="203" y="737"/><rect fill="#F1F1F1" height="2" style="stroke:#181818;stroke-width:0.5;" width="4" x="203" y="741"/><text fill="#000000" font-family="sans-serif" font-size="14" lengthAdjust="spacing" textLength="40" x="160" y="762.9951">Nginx</text></g><!--entity MS--><g id="elem_MS"><rect fill="#F1F1F1" height="46.2969" rx="2.5" ry="2.5" style="stroke:#181818;stroke-width:0.5;" width="117" x="50.5" y="46"/><rect fill="#F1F1F1" height="10" style="stroke:#181818;stroke-width:0.5;" width="15" x="147.5" y="51"/><rect fill="#F1F1F1" height="2" style="stroke:#181818;stroke-width:0.5;" width="4" x="145.5" y="53"/><rect fill="#F1F1F1" height="2" style="stroke:#181818;stroke-width:0.5;" width="4" x="145.5" y="57"/><text fill="#000000" font-family="sans-serif" font-size="14" lengthAdjust="spacing" textLength="77" x="65.5" y="78.9951">Mail server</text></g><!--entity 4200--><g id="elem_4200"><ellipse cx="270" cy="641" fill="#F1F1F1" rx="8" ry="8" style="stroke:#181818;stroke-width:0.5;"/><text fill="#000000" font-family="sans-serif" font-size="14" lengthAdjust="spacing" textLength="76" x="232" y="670.9951">HTTP:4200</text></g><!--entity 3000--><g id="elem_3000"><ellipse cx="274" cy="405" fill="#F1F1F1" rx="8" ry="8" style="stroke:#181818;stroke-width:0.5;"/><text fill="#000000" font-family="sans-serif" font-size="14" lengthAdjust="spacing" textLength="78" x="235" y="434.9951">HTTP:3000</text></g><!--entity p--><g id="elem_p"><ellipse cx="428" cy="181" fill="#F1F1F1" rx="8" ry="8" style="stroke:#181818;stroke-width:0.5;"/><text fill="#000000" font-family="sans-serif" font-size="14" lengthAdjust="spacing" textLength="111" x="372.5" y="210.9951">AMQP producer</text></g><!--entity c--><g id="elem_c"><ellipse cx="264" cy="181" fill="#F1F1F1" rx="8" ry="8" style="stroke:#181818;stroke-width:0.5;"/><text fill="#000000" font-family="sans-serif" font-size="14" lengthAdjust="spacing" textLength="116" x="206" y="210.9951">AMQP consumer</text></g><!--entity SMTP--><g id="elem_SMTP"><ellipse cx="116" cy="181" fill="#F1F1F1" rx="8" ry="8" style="stroke:#181818;stroke-width:0.5;"/><text fill="#000000" font-family="sans-serif" font-size="14" lengthAdjust="spacing" textLength="79" x="76.5" y="210.9951">SMTP:1025</text></g><!--entity 1080--><g id="elem_1080"><ellipse cx="94" cy="523" fill="#F1F1F1" rx="8" ry="8" style="stroke:#181818;stroke-width:0.5;"/><text fill="#000000" font-family="sans-serif" font-size="14" lengthAdjust="spacing" textLength="79" x="54.5" y="552.9951">SMTP:1080</text></g><!--entity NW--><g id="elem_NW"><rect fill="#F1F1F1" height="46.2969" rx="2.5" ry="2.5" style="stroke:#181818;stroke-width:0.5;" width="154" x="108" y="954"/><rect fill="#F1F1F1" height="10" style="stroke:#181818;stroke-width:0.5;" width="15" x="242" y="959"/><rect fill="#F1F1F1" height="2" style="stroke:#181818;stroke-width:0.5;" width="4" x="240" y="961"/><rect fill="#F1F1F1" height="2" style="stroke:#181818;stroke-width:0.5;" width="4" x="240" y="965"/><text fill="#000000" font-family="sans-serif" font-size="14" lengthAdjust="spacing" textLength="114" x="123" y="986.9951">Navigateur Web</text></g><!--entity 80--><g id="elem_80"><ellipse cx="185" cy="865" fill="#F1F1F1" rx="8" ry="8" style="stroke:#181818;stroke-width:0.5;"/><text fill="#000000" font-family="sans-serif" font-size="14" lengthAdjust="spacing" textLength="59" x="155.5" y="894.9951">HTTP:80</text></g><!--link F to 4200--><g id="link_F_4200"><path d="M273.238,546.092 C272.336,572.254 270.88,614.488 270.276,631.998 " fill="none" id="F-4200" style="stroke:#181818;stroke-width:1.0;"/></g><!--reverse link 4200 to N--><g id="link_4200_N"><path d="M260.297,654.556 C246.167,672.843 219.71,707.082 202.222,729.713 " fill="none" id="4200-backto-N" style="stroke:#181818;stroke-width:1.0;stroke-dasharray:7.0,7.0;"/><polygon fill="#181818" points="263.611,650.268,254.9433,654.9447,260.5542,654.2247,261.2741,659.8356,263.611,650.268" style="stroke:#181818;stroke-width:1.0;"/></g><!--link N to 80--><g id="link_N_80"><path d="M185,776.26 C185,800.869 185,839.227 185,855.856 " fill="none" id="N-80" style="stroke:#181818;stroke-width:1.0;"/></g><!--reverse link 80 to NW--><g id="link_80_NW"><path d="M185,879.5 C185,898 185,931.4652 185,953.7129 " fill="none" id="80-backto-NW" style="stroke:#181818;stroke-width:1.0;stroke-dasharray:7.0,7.0;"/><polygon fill="#181818" points="185,874.268,181,883.268,185,879.268,189,883.268,185,874.268" style="stroke:#181818;stroke-width:1.0;"/></g><!--link API to 3000--><g id="link_API_3000"><path d="M390.455,316.26 C356.959,341.497 304.271,381.193 283.178,397.085 " fill="none" id="API-3000" style="stroke:#181818;stroke-width:1.0;"/></g><!--reverse link 3000 to F--><g id="link_3000_F"><path d="M274,419.403 C274,439.053 274,475.919 274,499.694 " fill="none" id="3000-backto-F" style="stroke:#181818;stroke-width:1.0;stroke-dasharray:7.0,7.0;"/><polygon fill="#181818" points="274,414.342,270,423.342,274,419.342,278,423.342,274,414.342" style="stroke:#181818;stroke-width:1.0;"/></g><!--reverse link 3000 to N--><g id="link_3000_N"><path d="M260.991,417.21 C244.177,432.591 215.57,461.996 203,494 C170.744,576.122 177.401,684.181 182.238,729.976 " fill="none" id="3000-backto-N" style="stroke:#181818;stroke-width:1.0;stroke-dasharray:7.0,7.0;"/><polygon fill="#181818" points="264.995,413.609,255.629,416.6549,261.278,416.9532,260.9797,422.6022,264.995,413.609" style="stroke:#181818;stroke-width:1.0;"/></g><!--link API to SQL--><g id="link_API_SQL"><path d="M420,316.26 C420,333.819 420,358.378 420,377.049 " fill="none" id="API-to-SQL" style="stroke:#181818;stroke-width:1.0;stroke-dasharray:7.0,7.0;"/><polygon fill="#181818" points="420,382.148,424,373.148,420,377.148,416,373.148,420,382.148" style="stroke:#181818;stroke-width:1.0;"/></g><!--link RMQ to p--><g id="link_RMQ_p"><path d="M301.974,92.26 C338.583,117.748 396.378,157.984 418.739,173.552 " fill="none" id="RMQ-p" style="stroke:#181818;stroke-width:1.0;"/></g><!--reverse link p to API--><g id="link_p_API"><path d="M427.018,195.5 C425.673,214 423.239,247.465 421.621,269.713 " fill="none" id="p-backto-API" style="stroke:#181818;stroke-width:1.0;stroke-dasharray:7.0,7.0;"/><polygon fill="#181818" points="427.399,190.268,422.7563,198.9539,427.0361,195.2548,430.7352,199.5346,427.399,190.268" style="stroke:#181818;stroke-width:1.0;"/></g><!--link RMQ to c--><g id="link_RMQ_c"><path d="M268.786,92.26 C267.444,116.869 265.351,155.227 264.444,171.856 " fill="none" id="RMQ-c" style="stroke:#181818;stroke-width:1.0;"/></g><!--reverse link c to Q--><g id="link_c_Q"><path d="M260.809,195.5 C256.436,214 248.526,247.465 243.268,269.713 " fill="none" id="c-backto-Q" style="stroke:#181818;stroke-width:1.0;stroke-dasharray:7.0,7.0;"/><polygon fill="#181818" points="262.046,190.268,256.0832,198.1067,260.8959,195.1339,263.8687,199.9467,262.046,190.268" style="stroke:#181818;stroke-width:1.0;"/></g><!--link MS to 1080--><g id="link_MS_1080"><path d="M87.4514,92.264 C74.105,107.67 58.1849,129.4 51,152 C6.6224,291.59 74.4332,473.811 90.6507,513.954 " fill="none" id="MS-1080" style="stroke:#181818;stroke-width:1.0;"/></g><!--reverse link 1080 to N--><g id="link_1080_N"><path d="M99.2416,537.133 C114.248,574.732 157.497,683.092 176.204,729.962 " fill="none" id="1080-backto-N" style="stroke:#181818;stroke-width:1.0;stroke-dasharray:7.0,7.0;"/><polygon fill="#181818" points="97.2387,532.115,96.8583,541.9565,99.0914,536.7591,104.2889,538.9922,97.2387,532.115" style="stroke:#181818;stroke-width:1.0;"/></g><!--link MS to SMTP--><g id="link_MS_SMTP"><path d="M110.417,92.26 C111.983,116.869 114.424,155.227 115.482,171.856 " fill="none" id="MS-SMTP" style="stroke:#181818;stroke-width:1.0;"/></g><!--reverse link SMTP to Q--><g id="link_SMTP_Q"><path d="M128.91,193.64 C148.916,211.679 187.756,246.698 213.282,269.713 " fill="none" id="SMTP-backto-Q" style="stroke:#181818;stroke-width:1.0;stroke-dasharray:7.0,7.0;"/><polygon fill="#181818" points="125.17,190.268,129.1761,199.2653,128.8836,193.616,134.5329,193.3235,125.17,190.268" style="stroke:#181818;stroke-width:1.0;"/></g><!--SRC=[JP71QiCm38RlUWgHqtPeoBeDoXY3Ni86SuYRGWwX1oSn9RHDZ9sKbR5tdwLuP1TP-lGZVidzq6gCYfiRzIL2_0R4Qfj_750vz2-qQbIrSXh5hP2VHFq3LMg7VjHzoxeKAZafUveSAcCOIQXsggwxKKYkTyAJxDZrNrncK0dLdT5fUzMMaIW0xkunUj_lyvUdTP94H2bPy6CIC2MCjqBcQEpGJesst38BRuRUJPV06-Q5y6CUalKpCwh-uyqydHBu0MzONRkZ6lLaiTJrxBnSx0Iv5mEak5hDRYdWQnpx9JE2lhq9e0JmDoN82r3WHhga6IlY-8tl3Fvk93TWk4i_yiSQQ9X9054GODiKmg2PyeuKPl4l]--></g></svg>