<?xml version="1.0" encoding="us-ascii" standalone="no"?><svg xmlns="http://www.w3.org/2000/svg" xmlns:xlink="http://www.w3.org/1999/xlink" contentStyleType="text/css" height="889px" preserveAspectRatio="none" style="width:1410px;height:889px;background:#FFFFFF;" version="1.1" viewBox="0 0 1410 889" width="1410px" zoomAndPan="magnify"><defs/><g><!--cluster device1--><g id="cluster_device1"><polygon fill="none" points="55.07,16,65.07,6,225.0697,6,225.0697,114,215.0697,124,55.07,124,55.07,16" style="stroke:#181818;stroke-width:1.0;"/><line style="stroke:#181818;stroke-width:1.0;" x1="215.0697" x2="225.0697" y1="16" y2="6"/><line style="stroke:#181818;stroke-width:1.0;" x1="55.07" x2="215.0697" y1="16" y2="16"/><line style="stroke:#181818;stroke-width:1.0;" x1="215.0697" x2="215.0697" y1="16" y2="124"/><text fill="#000000" font-family="sans-serif" font-size="14" font-style="italic" lengthAdjust="spacing" textLength="65" x="103.5698" y="31.9951">&#171;device&#187;</text><text fill="#000000" font-family="sans-serif" font-size="14" font-weight="bold" lengthAdjust="spacing" textLength="82" x="95.0698" y="48.292">IoT device</text></g><!--cluster device2--><g id="cluster_device2"><polygon fill="none" points="280.0696,16,290.0696,6,450.0696,6,450.0696,114,440.0696,124,280.0696,124,280.0696,16" style="stroke:#181818;stroke-width:1.0;"/><line style="stroke:#181818;stroke-width:1.0;" x1="440.0696" x2="450.0696" y1="16" y2="6"/><line style="stroke:#181818;stroke-width:1.0;" x1="280.0696" x2="440.0696" y1="16" y2="16"/><line style="stroke:#181818;stroke-width:1.0;" x1="440.0696" x2="440.0696" y1="16" y2="124"/><text fill="#000000" font-family="sans-serif" font-size="14" font-style="italic" lengthAdjust="spacing" textLength="65" x="328.5696" y="31.9951">&#171;device&#187;</text><text fill="#000000" font-family="sans-serif" font-size="14" font-weight="bold" lengthAdjust="spacing" textLength="82" x="320.0696" y="48.292">IoT device</text></g><!--cluster Cloud--><g id="cluster_Cloud"><path d="M1049.1528,745.0949 C1050.888,737.4735 1056.5861,736.3005 1061.7516,741.8015 C1064.0214,735.8024 1069.3339,735.2958 1073.5181,739.6192 C1076.3564,733.4964 1081.0997,731.8549 1086.2619,736.9882 C1088.9096,729.3699 1094.9126,729.3843 1100.0403,734.2514 C1105.3538,729.0935 1110.9641,730.9892 1113.3189,737.592 C1118.3325,732.268 1124.1104,734.2336 1125.924,740.9438 C1129.7445,735.6844 1136.1632,734.4477 1139.4033,741.5753 C1144.9189,736.7995 1150.7235,738.054 1152.6945,745.4469 C1160.1676,747.8959 1160.8763,753.2293 1155.1666,758.2281 C1161.0186,760.7156 1161.4573,766.4314 1156.735,770.2935 C1164.7095,772.5367 1167.4008,778.7116 1160.6026,784.8734 C1165.5494,790.1519 1164.1475,795.2895 1156.9856,796.9377 C1164.6744,801.6094 1164.2615,808.6743 1155.7595,812.0308 C1160.096,818.2287 1160.0666,823.3834 1151.4953,825.4927 C1147.8479,830.4374 1144.0804,830.6792 1139.9628,826.0598 C1137.5553,833.3052 1131.0826,834.4584 1126.5656,828.1441 C1122.9389,833.788 1116.2993,834.2562 1112.8871,827.8997 C1110.4871,835.4646 1104.2038,835.1247 1099.6276,830.2124 C1095.5725,835.1269 1090.4748,835.1375 1087.9156,828.6728 C1082.7667,833.6102 1077.7825,833.1681 1074.1565,826.8167 C1069.8395,831.6486 1065.546,831.9517 1061.8472,826.1043 C1057.5498,832.4131 1051.1008,830.9468 1047.8705,824.8974 C1040.8127,821.3269 1040.0038,815.7839 1046.9839,811.2981 C1038.9524,808.6304 1039.1083,802.0201 1044.7753,797.2056 C1037.0845,795.6771 1036.1342,789.2998 1041.5753,784.4714 C1036.7858,779.347 1036.6328,774.9708 1043.9037,772.1199 C1036.4307,766.6914 1038.505,761.1298 1045.504,757.2599 C1041.716,752.186 1043.0415,747.1995 1049.1528,745.0949 " fill="none" style="stroke:#181818;stroke-width:1.0;"/><text fill="#000000" font-family="sans-serif" font-size="14" font-weight="bold" lengthAdjust="spacing" textLength="45" x="1076.5657" y="761.4951">Cloud</text></g><!--cluster server--><g id="cluster_server"><polygon fill="none" points="48.07,213,58.07,203,1015.0697,203,1015.0697,862,1005.0697,872,48.07,872,48.07,213" style="stroke:#181818;stroke-width:1.0;"/><line style="stroke:#181818;stroke-width:1.0;" x1="1005.0697" x2="1015.0697" y1="213" y2="203"/><line style="stroke:#181818;stroke-width:1.0;" x1="48.07" x2="1005.0697" y1="213" y2="213"/><line style="stroke:#181818;stroke-width:1.0;" x1="1005.0697" x2="1005.0697" y1="213" y2="872"/><text fill="#000000" font-family="sans-serif" font-size="14" font-style="italic" lengthAdjust="spacing" textLength="65" x="495.0698" y="228.9951">&#171;device&#187;</text><text fill="#000000" font-family="sans-serif" font-size="14" font-weight="bold" lengthAdjust="spacing" textLength="51" x="502.0698" y="245.292">Server</text></g><!--cluster srvapp--><g id="cluster_srvapp"><polygon fill="none" points="72.07,277,82.07,267,593.0697,267,593.0697,474,583.0697,484,72.07,484,72.07,277" style="stroke:#181818;stroke-width:1.0;"/><line style="stroke:#181818;stroke-width:1.0;" x1="583.0697" x2="593.0697" y1="277" y2="267"/><line style="stroke:#181818;stroke-width:1.0;" x1="72.07" x2="583.0697" y1="277" y2="277"/><line style="stroke:#181818;stroke-width:1.0;" x1="583.0697" x2="583.0697" y1="277" y2="484"/><text fill="#000000" font-family="sans-serif" font-size="14" font-style="italic" lengthAdjust="spacing" textLength="67" x="295.0698" y="292.9951">&#171;docker&#187;</text><text fill="#000000" font-family="sans-serif" font-size="14" font-weight="bold" lengthAdjust="spacing" textLength="148" x="254.5698" y="309.292">Server application</text></g><!--cluster lwm2mserver--><g id="cluster_lwm2mserver"><rect fill="none" height="113" rx="2.5" ry="2.5" style="stroke:#181818;stroke-width:1.0;" width="196.9997" x="104.07" y="339"/><rect fill="none" height="10" style="stroke:#181818;stroke-width:1.0;" width="15" x="281.0696" y="344"/><rect fill="none" height="2" style="stroke:#181818;stroke-width:1.0;" width="4" x="279.0696" y="346"/><rect fill="none" height="2" style="stroke:#181818;stroke-width:1.0;" width="4" x="279.0696" y="350"/><text fill="#000000" font-family="sans-serif" font-size="14" font-weight="bold" lengthAdjust="spacing" textLength="116" x="144.5698" y="364.9951">LwM2M Server</text></g><!--cluster lwm2mbootstrap--><g id="cluster_lwm2mbootstrap"><rect fill="none" height="113" rx="2.5" ry="2.5" style="stroke:#181818;stroke-width:1.0;" width="220" x="341.0696" y="339"/><rect fill="none" height="10" style="stroke:#181818;stroke-width:1.0;" width="15" x="541.0697" y="344"/><rect fill="none" height="2" style="stroke:#181818;stroke-width:1.0;" width="4" x="539.0697" y="346"/><rect fill="none" height="2" style="stroke:#181818;stroke-width:1.0;" width="4" x="539.0697" y="350"/><text fill="#000000" font-family="sans-serif" font-size="14" font-weight="bold" lengthAdjust="spacing" textLength="204" x="349.0697" y="364.9951">LwM2M Bootstrap Server</text></g><!--cluster frontapp--><g id="cluster_frontapp"><polygon fill="none" points="617.0697,336,627.0697,326,991.0697,326,991.0697,434,981.0697,444,617.0697,444,617.0697,336" style="stroke:#181818;stroke-width:1.0;"/><line style="stroke:#181818;stroke-width:1.0;" x1="981.0697" x2="991.0697" y1="336" y2="326"/><line style="stroke:#181818;stroke-width:1.0;" x1="617.0697" x2="981.0697" y1="336" y2="336"/><line style="stroke:#181818;stroke-width:1.0;" x1="981.0697" x2="981.0697" y1="336" y2="444"/><text fill="#000000" font-family="sans-serif" font-size="14" font-style="italic" lengthAdjust="spacing" textLength="67" x="766.5697" y="351.9951">&#171;docker&#187;</text><text fill="#000000" font-family="sans-serif" font-size="14" font-weight="bold" lengthAdjust="spacing" textLength="141" x="729.5697" y="368.292">Front application</text></g><!--cluster dma--><g id="cluster_dma"><polygon fill="none" points="391.0696,551,401.0696,541,983.0696,541,983.0696,830,973.0696,840,391.0696,840,391.0696,551" style="stroke:#181818;stroke-width:1.0;"/><line style="stroke:#181818;stroke-width:1.0;" x1="973.0696" x2="983.0696" y1="551" y2="541"/><line style="stroke:#181818;stroke-width:1.0;" x1="391.0696" x2="973.0696" y1="551" y2="551"/><line style="stroke:#181818;stroke-width:1.0;" x1="973.0696" x2="973.0696" y1="551" y2="840"/><text fill="#000000" font-family="sans-serif" font-size="14" font-style="italic" lengthAdjust="spacing" textLength="67" x="649.5696" y="566.9951">&#171;docker&#187;</text><text fill="#000000" font-family="sans-serif" font-size="14" font-weight="bold" lengthAdjust="spacing" textLength="333" x="516.5696" y="583.292">Device Management Application Backend</text></g><!--cluster admin--><g id="cluster_admin"><polygon fill="none" points="1183.0657,724,1193.0657,714,1393.0657,714,1393.0657,822,1383.0657,832,1183.0657,832,1183.0657,724" style="stroke:#181818;stroke-width:1.0;"/><line style="stroke:#181818;stroke-width:1.0;" x1="1383.0657" x2="1393.0657" y1="724" y2="714"/><line style="stroke:#181818;stroke-width:1.0;" x1="1183.0657" x2="1383.0657" y1="724" y2="724"/><line style="stroke:#181818;stroke-width:1.0;" x1="1383.0657" x2="1383.0657" y1="724" y2="832"/><text fill="#000000" font-family="sans-serif" font-size="14" font-style="italic" lengthAdjust="spacing" textLength="65" x="1251.5657" y="739.9951">&#171;device&#187;</text><text fill="#000000" font-family="sans-serif" font-size="14" font-weight="bold" lengthAdjust="spacing" textLength="134" x="1217.0657" y="756.292">Admin computer</text></g><!--entity client1--><g id="elem_client1"><rect fill="#F1F1F1" height="46.2969" rx="2.5" ry="2.5" style="stroke:#181818;stroke-width:0.5;" width="138" x="71.07" y="62"/><rect fill="#F1F1F1" height="10" style="stroke:#181818;stroke-width:0.5;" width="15" x="189.07" y="67"/><rect fill="#F1F1F1" height="2" style="stroke:#181818;stroke-width:0.5;" width="4" x="187.07" y="69"/><rect fill="#F1F1F1" height="2" style="stroke:#181818;stroke-width:0.5;" width="4" x="187.07" y="73"/><text fill="#000000" font-family="sans-serif" font-size="14" lengthAdjust="spacing" textLength="98" x="86.07" y="94.9951">LwM2M Client</text></g><!--entity client2--><g id="elem_client2"><rect fill="#F1F1F1" height="46.2969" rx="2.5" ry="2.5" style="stroke:#181818;stroke-width:0.5;" width="138" x="296.0696" y="62"/><rect fill="#F1F1F1" height="10" style="stroke:#181818;stroke-width:0.5;" width="15" x="414.0696" y="67"/><rect fill="#F1F1F1" height="2" style="stroke:#181818;stroke-width:0.5;" width="4" x="412.0696" y="69"/><rect fill="#F1F1F1" height="2" style="stroke:#181818;stroke-width:0.5;" width="4" x="412.0696" y="73"/><text fill="#000000" font-family="sans-serif" font-size="14" lengthAdjust="spacing" textLength="98" x="311.0696" y="94.9951">LwM2M Client</text></g><!--entity database--><g id="elem_database"><path d="M1055.0657,780.5 C1055.0657,770.5 1099.0657,770.5 1099.0657,770.5 C1099.0657,770.5 1143.0657,770.5 1143.0657,780.5 L1143.0657,805.7969 C1143.0657,815.7969 1099.0657,815.7969 1099.0657,815.7969 C1099.0657,815.7969 1055.0657,815.7969 1055.0657,805.7969 L1055.0657,780.5 " fill="#F1F1F1" style="stroke:#181818;stroke-width:0.5;"/><path d="M1055.0657,780.5 C1055.0657,790.5 1099.0657,790.5 1099.0657,790.5 C1099.0657,790.5 1143.0657,790.5 1143.0657,780.5 " fill="none" style="stroke:#181818;stroke-width:0.5;"/><text fill="#000000" font-family="sans-serif" font-size="14" lengthAdjust="spacing" textLength="68" x="1065.0657" y="807.4951">Database</text></g><!--entity coapserver--><g id="elem_coapserver"><rect fill="#F1F1F1" height="46.2969" rx="2.5" ry="2.5" style="stroke:#181818;stroke-width:0.5;" width="129" x="147.5697" y="382"/><rect fill="#F1F1F1" height="10" style="stroke:#181818;stroke-width:0.5;" width="15" x="256.5697" y="387"/><rect fill="#F1F1F1" height="2" style="stroke:#181818;stroke-width:0.5;" width="4" x="254.5697" y="389"/><rect fill="#F1F1F1" height="2" style="stroke:#181818;stroke-width:0.5;" width="4" x="254.5697" y="393"/><text fill="#000000" font-family="sans-serif" font-size="14" lengthAdjust="spacing" textLength="89" x="162.5697" y="414.9951">CoAP Server</text></g><!--entity coapbootstrap--><g id="elem_coapbootstrap"><rect fill="#F1F1F1" height="46.2969" rx="2.5" ry="2.5" style="stroke:#181818;stroke-width:0.5;" width="129" x="401.5696" y="382"/><rect fill="#F1F1F1" height="10" style="stroke:#181818;stroke-width:0.5;" width="15" x="510.5696" y="387"/><rect fill="#F1F1F1" height="2" style="stroke:#181818;stroke-width:0.5;" width="4" x="508.5696" y="389"/><rect fill="#F1F1F1" height="2" style="stroke:#181818;stroke-width:0.5;" width="4" x="508.5696" y="393"/><text fill="#000000" font-family="sans-serif" font-size="14" lengthAdjust="spacing" textLength="89" x="416.5696" y="414.9951">CoAP Server</text></g><!--entity dmafrontend--><g id="elem_dmafrontend"><rect fill="#F1F1F1" height="46.2969" rx="2.5" ry="2.5" style="stroke:#181818;stroke-width:0.5;" width="342" x="633.0697" y="382"/><rect fill="#F1F1F1" height="10" style="stroke:#181818;stroke-width:0.5;" width="15" x="955.0697" y="387"/><rect fill="#F1F1F1" height="2" style="stroke:#181818;stroke-width:0.5;" width="4" x="953.0697" y="389"/><rect fill="#F1F1F1" height="2" style="stroke:#181818;stroke-width:0.5;" width="4" x="953.0697" y="393"/><text fill="#000000" font-family="sans-serif" font-size="14" lengthAdjust="spacing" textLength="302" x="648.0697" y="414.9951">Device Management Application frontend</text></g><!--entity deviceservice--><g id="elem_deviceservice"><rect fill="#F1F1F1" height="46.2969" rx="2.5" ry="2.5" style="stroke:#181818;stroke-width:0.5;" width="244" x="415.0696" y="605"/><rect fill="#F1F1F1" height="10" style="stroke:#181818;stroke-width:0.5;" width="15" x="639.0696" y="610"/><rect fill="#F1F1F1" height="2" style="stroke:#181818;stroke-width:0.5;" width="4" x="637.0696" y="612"/><rect fill="#F1F1F1" height="2" style="stroke:#181818;stroke-width:0.5;" width="4" x="637.0696" y="616"/><text fill="#000000" font-family="sans-serif" font-size="14" lengthAdjust="spacing" textLength="204" x="430.0696" y="637.9951">Device management service</text></g><!--entity energyservice--><g id="elem_energyservice"><rect fill="#F1F1F1" height="46.2969" rx="2.5" ry="2.5" style="stroke:#181818;stroke-width:0.5;" width="245" x="694.5697" y="605"/><rect fill="#F1F1F1" height="10" style="stroke:#181818;stroke-width:0.5;" width="15" x="919.5697" y="610"/><rect fill="#F1F1F1" height="2" style="stroke:#181818;stroke-width:0.5;" width="4" x="917.5697" y="612"/><rect fill="#F1F1F1" height="2" style="stroke:#181818;stroke-width:0.5;" width="4" x="917.5697" y="616"/><text fill="#000000" font-family="sans-serif" font-size="14" lengthAdjust="spacing" textLength="205" x="709.5697" y="637.9951">Energy management service</text></g><!--entity firmwareservice--><g id="elem_firmwareservice"><rect fill="#F1F1F1" height="46.2969" rx="2.5" ry="2.5" style="stroke:#181818;stroke-width:0.5;" width="316" x="415.0696" y="770"/><rect fill="#F1F1F1" height="10" style="stroke:#181818;stroke-width:0.5;" width="15" x="711.0696" y="775"/><rect fill="#F1F1F1" height="2" style="stroke:#181818;stroke-width:0.5;" width="4" x="709.0696" y="777"/><rect fill="#F1F1F1" height="2" style="stroke:#181818;stroke-width:0.5;" width="4" x="709.0696" y="781"/><text fill="#000000" font-family="sans-serif" font-size="14" lengthAdjust="spacing" textLength="276" x="430.0696" y="802.9951">Firmware update management service</text></g><!--entity web--><g id="elem_web"><rect fill="#F1F1F1" height="46.2969" rx="2.5" ry="2.5" style="stroke:#181818;stroke-width:0.5;" width="132" x="1199.0657" y="770"/><rect fill="#F1F1F1" height="10" style="stroke:#181818;stroke-width:0.5;" width="15" x="1311.0657" y="775"/><rect fill="#F1F1F1" height="2" style="stroke:#181818;stroke-width:0.5;" width="4" x="1309.0657" y="777"/><rect fill="#F1F1F1" height="2" style="stroke:#181818;stroke-width:0.5;" width="4" x="1309.0657" y="781"/><text fill="#000000" font-family="sans-serif" font-size="14" lengthAdjust="spacing" textLength="92" x="1214.0657" y="802.9951">web browser</text></g><!--link client1 to lwm2mserver--><g id="link_client1_lwm2mserver"><path d="M68.1757,110.4535 C54.0872,118.2815 45.3769,126.265 37.07,140 C6,191.37 23.6832,256.1263 49.6548,308.6474 C62.6406,334.9079 77.6985,358.1097 89.7704,375.05 C92.7883,379.2851 95.6197,383.1289 98.1854,386.5312 C99.4682,388.2324 100.6847,389.8232 101.8248,391.2975 C102.3949,392.0346 102.9459,392.7426 103.4766,393.4206 C103.6092,393.5901 100.6533,389.8247 100.7834,389.9905 " fill="none" id="client1-lwm2mserver" style="stroke:#181818;stroke-width:1.0;"/><rect fill="#FFFFFF" height="10" style="stroke:#181818;stroke-width:1.5;" width="10" x="67.5463" y="103.025"/><rect fill="#FFFFFF" height="10" style="stroke:#181818;stroke-width:1.5;" width="10" x="98.8708" y="388.9235"/><text fill="#000000" font-family="sans-serif" font-size="13" lengthAdjust="spacing" textLength="100" x="38.07" y="153.0669">&#171;LwM2M/CoAP&#187;</text><text fill="#000000" font-family="sans-serif" font-size="13" lengthAdjust="spacing" textLength="43" x="66.57" y="168.1997">&#171;UDP&#187;</text><text fill="#000000" font-family="sans-serif" font-size="13" lengthAdjust="spacing" textLength="57" x="59.57" y="183.3325">&#171;NB-IoT&#187;</text></g><!--link client1 to lwm2mbootstrap--><g id="link_client1_lwm2mbootstrap"><path d="M142.5703,113.182 C145.8093,136.897 154.1227,168.574 179.0697,187 C199.4977,202.088 273.0907,179.323 293.0696,195 C330.8407,224.6375 347.6616,275.7305 355.0053,319.9791 C355.9232,325.5102 356.6931,330.9343 357.3373,336.1963 C357.4178,336.854 356.9132,332.5433 356.9898,333.1959 " fill="none" id="client1-lwm2mbootstrap" style="stroke:#181818;stroke-width:1.0;"/><rect fill="#FFFFFF" height="10" style="stroke:#181818;stroke-width:1.5;" width="10" x="136.8936" y="103.228"/><rect fill="#FFFFFF" height="10" style="stroke:#181818;stroke-width:1.5;" width="10" x="352.573" y="333.1618"/><text fill="#000000" font-family="sans-serif" font-size="13" lengthAdjust="spacing" textLength="100" x="180.0697" y="153.0669">&#171;LwM2M/CoAP&#187;</text><text fill="#000000" font-family="sans-serif" font-size="13" lengthAdjust="spacing" textLength="43" x="208.5697" y="168.1997">&#171;UDP&#187;</text><text fill="#000000" font-family="sans-serif" font-size="13" lengthAdjust="spacing" textLength="57" x="201.5697" y="183.3325">&#171;NB-IoT&#187;</text></g><!--link client2 to lwm2mserver--><g id="link_client2_lwm2mserver"><path d="M340.9547,111.7392 C332.2447,121.3172 325.5537,129.119 317.0696,140 C301.5316,159.93 307.0947,174.609 285.0696,187 C270.1367,195.401 143.4176,183.121 131.0697,195 C97.9855,226.826 92.8659,277.9533 96.1978,321.6723 C97.0308,332.602 98.392,343.0687 99.9766,352.6551 C100.7688,357.4483 101.6169,362.0214 102.4828,366.3223 C102.9157,368.4727 103.353,370.555 103.79,372.5628 C103.8446,372.8138 102.8267,368.18 102.8813,368.4286 " fill="none" id="client2-lwm2mserver" style="stroke:#181818;stroke-width:1.0;"/><rect fill="#FFFFFF" height="10" style="stroke:#181818;stroke-width:1.5;" width="10" x="339.3187" y="103.04"/><rect fill="#FFFFFF" height="10" style="stroke:#181818;stroke-width:1.5;" width="10" x="98.9539" y="368.3122"/><text fill="#000000" font-family="sans-serif" font-size="13" lengthAdjust="spacing" textLength="100" x="318.0696" y="153.0669">&#171;LwM2M/CoAP&#187;</text><text fill="#000000" font-family="sans-serif" font-size="13" lengthAdjust="spacing" textLength="43" x="346.5696" y="168.1997">&#171;UDP&#187;</text><text fill="#000000" font-family="sans-serif" font-size="13" lengthAdjust="spacing" textLength="57" x="339.5696" y="183.3325">&#171;NB-IoT&#187;</text></g><!--link client2 to lwm2mbootstrap--><g id="link_client2_lwm2mbootstrap"><path d="M404.3593,111.1797 C414.9293,119.7397 421.3337,127.398 427.0696,140 C435.7236,159.012 440.3877,170.907 427.0696,187 C414.9557,201.64 398.0336,181.107 385.0696,195 C353.6566,228.665 347.1097,279.821 348.5609,323.095 C348.7423,328.5043 348.6603,328.8055 349.0587,333.9188 " fill="none" id="client2-lwm2mbootstrap" style="stroke:#181818;stroke-width:1.0;"/><rect fill="#FFFFFF" height="10" style="stroke:#181818;stroke-width:1.5;" width="10" x="395.4736" y="103.033"/><rect fill="#FFFFFF" height="10" style="stroke:#181818;stroke-width:1.5;" width="10" x="344.4471" y="333.9037"/><text fill="#000000" font-family="sans-serif" font-size="13" lengthAdjust="spacing" textLength="100" x="437.0696" y="153.0669">&#171;LwM2M/CoAP&#187;</text><text fill="#000000" font-family="sans-serif" font-size="13" lengthAdjust="spacing" textLength="43" x="465.5696" y="168.1997">&#171;UDP&#187;</text><text fill="#000000" font-family="sans-serif" font-size="13" lengthAdjust="spacing" textLength="57" x="458.5696" y="183.3325">&#171;NB-IoT&#187;</text></g><!--link lwm2mserver to dma--><g id="link_lwm2mserver_dma"><path d="M112.3856,457.1537 C112.4803,457.7433 111.8773,453.8354 111.9821,454.4253 C112.8206,459.1444 113.9895,463.8623 115.5859,468.3987 C118.7787,477.4715 123.6813,485.8188 131.0697,492 C201.4327,550.866 886.6957,464.971 956.0697,525 C960.3604,528.7128 963.8829,533.0562 966.7612,537.8188 C967.121,538.4141 967.4708,539.016 967.8107,539.624 C967.9806,539.928 965.7804,535.8297 965.9455,536.1368 " fill="none" id="lwm2mserver-dma" style="stroke:#181818;stroke-width:1.0;"/><rect fill="#FFFFFF" height="10" style="stroke:#181818;stroke-width:1.5;" width="10" x="106.6129" y="447.2138"/><rect fill="#FFFFFF" height="10" style="stroke:#181818;stroke-width:1.5;" width="10" x="963.3132" y="535.5406"/><text fill="#000000" font-family="sans-serif" font-size="13" lengthAdjust="spacing" textLength="73" x="938.0697" y="513.0669">&#171;REST API&#187;</text></g><!--link dma to database--><g id="link_dma_database"><path d="M986.3361,643.8096 C987.8885,645.8503 986.6032,644.1608 988.5086,646.6654 C996.1302,656.684 1006.3665,670.1397 1017.5459,684.8351 C1039.9047,714.226 1063.0086,744.5965 1079.5386,766.3275 " fill="none" id="dma-database" style="stroke:#181818;stroke-width:1.0;"/><rect fill="#FFFFFF" height="10" style="stroke:#181818;stroke-width:1.5;" width="10" x="978.3088" y="634.8302"/><rect fill="#FFFFFF" height="10" style="stroke:#181818;stroke-width:1.5;" width="10" x="1077.5657" y="765.307"/><text fill="#000000" font-family="sans-serif" font-size="13" lengthAdjust="spacing" textLength="73" x="1026.0657" y="694.0669">&#171;REST API&#187;</text></g><!--link dmafrontend to web--><g id="link_dmafrontend_web"><path d="M873.226,429.8687 C917.567,446.4757 972.1787,469.755 1020.0697,500 C1123.6857,565.435 1160.0757,579.051 1228.0657,681 C1246.4457,708.546 1255.4126,741.1156 1260.2426,764.7036 " fill="none" id="dmafrontend-web" style="stroke:#181818;stroke-width:1.0;"/><rect fill="#FFFFFF" height="10" style="stroke:#181818;stroke-width:1.5;" width="10" x="863.5437" y="423.115"/><rect fill="#FFFFFF" height="10" style="stroke:#181818;stroke-width:1.5;" width="10" x="1256.2457" y="764.602"/><text fill="#000000" font-family="sans-serif" font-size="13" lengthAdjust="spacing" textLength="49" x="1207.0657" y="632.5669">&#171;HTTP&#187;</text></g><!--link dma to web--><g id="link_dma_web"><path d="M988.2081,632.7561 C989.2204,633.0516 985.8884,632.0843 987.0571,632.4314 C989.3947,633.1256 992.037,633.9224 994.9504,634.8193 C1006.604,638.4067 1022.596,643.5954 1040.7819,650.2245 C1077.1537,663.4827 1122.3007,682.503 1159.0657,706 C1189.0257,725.143 1216.5294,748.0552 1237.2694,766.5002 " fill="none" id="dma-web" style="stroke:#181818;stroke-width:1.0;"/><rect fill="#FFFFFF" height="10" style="stroke:#181818;stroke-width:1.5;" width="10" x="978.4076" y="626.3577"/><rect fill="#FFFFFF" height="10" style="stroke:#181818;stroke-width:1.5;" width="10" x="1236.0057" y="764.823"/><text fill="#000000" font-family="sans-serif" font-size="13" lengthAdjust="spacing" textLength="73" x="1146.0657" y="694.0669">&#171;REST API&#187;</text></g><!--SRC=[fLHRQy8m57xlhpZ4PndhuoY5UcF273Axjxt4DafPavIqMiRmloyvwKrjnU63c9ppNOx95uMC6P2b325cnoHY13pFhdmVQ5vLd-7N0OWapwHWeW3oLgxS5KpJHE-8mKMuV7PEZYFkadJlb7IDP9JAGmnaQhu84cDQq2tDjT6iMY6dBhTpR9WwCdKvGuvLhQIbkZYWMPOc4IqIAP0Zes-cAeuwwYwwzmnU-sXWMdANDmu05_Yf3DPTU2HfPj68FVNhJwGiyaBHxCffstJkD6i8ZP_vD2UnK58pRnp4pW1wZsA6HmmhAkYUSLCAMXdBOoAsDyLflSS16llR6XEgvp0IvoDfjS5fUAjaZXaJsSImgbnIvuAf_SyGbM5tWBf852-fOd38T1e7xNSLh5KvjQ4DOfu853qKr-6bsDK_j-DQiYribIppwfxrtZuSV9Om6ez7Pxby0K8y3wFrP3BY-r_2ypvdrU9zCjOFsFS9wP5e0_TV5VVnGTm71-bwevA9ZgL_p3SX1EibuapPzgk_b7vCdM6BDRTWSQzXk3xNQNjTZJy0]--></g></svg>